<svg width="266" height="60" viewBox="0 0 266 60" fill="none" xmlns="http://www.w3.org/2000/svg">
<path fill-rule="evenodd" clip-rule="evenodd" d="M98.7544 46.6254C97.6698 46.3817 96.5905 46.0478 95.5168 45.6256L95.4887 45.6145L95.4612 45.6022C94.4513 45.1484 93.477 44.6197 92.5384 44.0172L92.527 44.0099L92.5159 44.0024C91.569 43.3641 90.7426 42.6855 90.0447 41.9641L90.0439 41.9634C88.4882 40.3524 87.2742 38.5163 86.4006 36.4628L86.3979 36.4563L86.3952 36.4498C85.5517 34.3878 85.131 32.2357 85.131 30C85.131 27.8178 85.5531 25.6945 86.3952 23.6358L86.3979 23.6293L86.4006 23.6228C87.2735 21.571 88.4855 19.7236 90.0367 18.087L90.0446 18.0786C90.7425 17.3573 91.569 16.6787 92.5159 16.0404L92.5239 16.035L92.532 16.0297C93.4966 15.402 94.468 14.8594 95.4466 14.4045L95.4811 14.3884L95.5168 14.3744C96.5905 13.9522 97.6698 13.6183 98.7544 13.3746L98.7627 13.3727C99.9002 13.1249 101.043 13 102.188 13C104.559 13 106.817 13.4647 108.949 14.3916L108.956 14.3947L108.963 14.3978C109.925 14.83 110.861 15.3659 111.771 16.0013C112.685 16.6111 113.532 17.2964 114.309 18.0562L114.325 18.0713L114.34 18.087C115.892 19.7251 117.09 21.5747 117.931 23.6293C118.806 25.6891 119.246 27.8147 119.246 30C119.246 32.2128 118.807 34.3661 117.932 36.454C117.09 38.5112 115.89 40.3503 114.333 41.9634L114.314 41.983L114.294 42.0018C113.552 42.6989 112.73 43.3617 111.83 43.9909L111.819 43.9987L111.807 44.0062C110.9 44.6102 109.957 45.1403 108.978 45.5955L108.963 45.6021L108.949 45.6084C106.817 46.5353 104.559 47 102.188 47C101.043 47 99.9002 46.8751 98.7627 46.6273L98.7544 46.6254ZM110.956 39.1359C112.093 37.9553 112.989 36.5858 113.64 35.0175L113.643 35.0101L113.646 35.0027C114.319 33.4507 114.66 31.7861 114.66 30C114.66 28.2139 114.319 26.5493 113.646 24.9973L113.643 24.9899L113.64 24.9825C112.989 23.414 112.094 22.0609 110.96 20.9113L110.952 20.9023C109.821 19.7295 108.494 18.8229 106.964 18.1744L106.952 18.1691L106.939 18.1636C105.457 17.4975 103.879 17.1643 102.188 17.1643C100.498 17.1643 98.9002 17.4976 97.3814 18.1673L97.3729 18.171C95.874 18.8187 94.5595 19.7256 93.4248 20.9023L93.4161 20.9114C92.2804 22.0629 91.3685 23.4187 90.6859 24.9899C90.0425 26.5437 89.7167 28.211 89.7167 30C89.7167 31.789 90.0425 33.4563 90.6859 35.0101C91.3684 36.5813 92.2812 37.9535 93.4205 39.136C94.5544 40.2847 95.8716 41.1953 97.3772 41.8736C98.8955 42.5154 100.495 42.8357 102.188 42.8357C103.885 42.8357 105.468 42.5143 106.952 41.8736C108.491 41.1942 109.824 40.2831 110.956 39.1359ZM145.508 43.2076C145.058 42.82 144.492 42.6645 143.932 42.6645H127.936V15.3176C127.936 14.7617 127.708 14.2358 127.221 13.8441C126.834 13.5071 126.317 13.2568 125.691 13.2568C125.054 13.2568 124.504 13.4923 124.082 13.8717C123.627 14.2805 123.446 14.8016 123.446 15.3176V44.7252C123.446 45.2441 123.627 45.7414 124.02 46.1533L124.08 46.2162L124.149 46.27C124.583 46.604 125.112 46.786 125.691 46.786H143.932C144.506 46.786 145.086 46.6227 145.541 46.2139C145.99 45.81 146.225 45.2928 146.225 44.7252C146.225 44.176 146.022 43.6204 145.508 43.2076ZM155.508 43.4019C155.918 43.7918 156.057 44.2789 156.057 44.7252C156.057 45.2928 155.823 45.81 155.373 46.2139C154.918 46.6227 154.338 46.786 153.764 46.786H152.05C151.473 46.786 150.893 46.6395 150.413 46.27L150.343 46.2162L150.283 46.1533C149.891 45.7414 149.709 45.2441 149.709 44.7252C149.709 44.2766 149.837 43.7857 150.227 43.3797C150.345 43.2564 150.476 43.1535 150.614 43.068V17.0126C150.469 16.9212 150.332 16.8104 150.21 16.6772C149.829 16.2632 149.709 15.7676 149.709 15.3176C149.709 14.8016 149.891 14.2805 150.346 13.8717C150.819 13.4468 151.422 13.2568 152.05 13.2568H153.764C154.369 13.2568 154.942 13.4528 155.374 13.8707C155.839 14.2594 156.057 14.7742 156.057 15.3176C156.057 15.7857 155.907 16.255 155.542 16.6486C155.437 16.7611 155.323 16.8612 155.2 16.9489V43.1367C155.31 43.2152 155.413 43.3036 155.508 43.4019ZM190.062 44.1793L190.082 44.2502C190.208 44.7055 190.164 45.1581 190.008 45.5792C189.732 46.3254 189.004 46.6729 188.392 46.8302L188.23 46.8716H188.063C187.593 46.8716 187.054 46.7985 186.589 46.5196L186.49 46.4605L186.406 46.3851C186.167 46.1703 185.948 45.9094 185.808 45.5965L182.586 38.396H166.824L163.612 45.6745L163.561 45.7498C163.326 46.1015 162.971 46.3535 162.645 46.5368L162.625 46.548L162.605 46.5586C162.123 46.806 161.565 46.8716 161.058 46.8716H160.625L160.291 46.6221C159.957 46.3716 159.701 46.0621 159.511 45.7202L159.499 45.6983L159.488 45.676C159.254 45.2038 159.19 44.6666 159.413 44.1333L159.417 44.1245L163.186 35.5486L172.755 14.1556L172.844 14.0755L172.873 14.0357C173.003 13.8604 173.164 13.708 173.351 13.5823C173.551 13.4239 173.842 13.2631 174.217 13.2233C174.435 13.1841 174.658 13.1712 174.87 13.1712H175.017L175.673 13.3185L175.906 13.528C175.906 13.528 175.91 13.5314 175.916 13.5355C175.925 13.5423 175.94 13.5526 175.963 13.566L176.018 13.5993H176.393L186.222 35.5503L190.062 44.1793ZM177.475 27.109L177.474 27.1054C176.577 25.0996 175.654 23.0191 174.707 20.864C173.75 22.981 172.826 25.0461 171.934 27.0591C170.898 29.3989 169.818 31.8183 168.693 34.3173H180.685C179.581 31.804 178.512 29.4013 177.475 27.109ZM220.354 46.2703L220.322 46.2995C219.846 46.7274 219.234 46.8716 218.665 46.8716C218.097 46.8716 217.485 46.7274 217.009 46.2995L216.976 46.2703L216.947 46.2389C216.554 45.827 216.372 45.3297 216.372 44.8108V43.9078C215.833 44.2892 215.275 44.6485 214.698 44.9855L214.673 45.0001L214.647 45.0137C212.121 46.3331 209.422 47 206.568 47C205.422 47 204.28 46.8751 203.143 46.6273C202.022 46.3832 200.936 46.0475 199.884 45.6204L199.862 45.6117L199.841 45.6022C198.831 45.1484 197.857 44.6197 196.918 44.0172L196.898 44.0044L196.879 43.9909C195.973 43.3578 195.16 42.6891 194.444 41.9836L194.429 41.9693L194.415 41.9545C192.895 40.3449 191.7 38.5117 190.828 36.4628L190.825 36.4563L190.823 36.4498C189.979 34.3878 189.558 32.2357 189.558 30C189.558 27.8178 189.98 25.6945 190.823 23.6358L190.825 23.6293L190.828 23.6228C191.699 21.5756 192.892 19.7311 194.408 18.0959L194.425 18.0772L194.444 18.0592C195.167 17.3475 196.002 16.6752 196.943 16.0404C197.882 15.4079 198.843 14.8618 199.826 14.4045L199.855 14.3913L199.884 14.3796C200.936 13.9525 202.022 13.6168 203.143 13.3727C204.28 13.1249 205.422 13 206.568 13C209.154 13 211.618 13.5748 213.945 14.7117C216.265 15.8167 218.225 17.3509 219.819 19.3008C220.202 19.7638 220.34 20.3114 220.231 20.8698C220.162 21.3837 219.907 21.8566 219.445 22.2131L219.39 22.2554L219.33 22.2915C218.818 22.5978 218.231 22.6358 217.747 22.5962L217.694 22.5919L217.641 22.5833C217.028 22.483 216.449 22.1997 216.078 21.6668L216.083 21.6635C214.87 20.2154 213.451 19.1253 211.828 18.371L211.817 18.3658L211.806 18.3605C210.173 17.5618 208.432 17.1643 206.568 17.1643C204.878 17.1643 203.299 17.4975 201.817 18.1636L201.809 18.1674L201.8 18.171C200.301 18.8186 198.987 19.7256 197.852 20.9023L197.843 20.9114C196.708 22.063 195.796 23.4189 195.113 24.9904C194.47 26.544 194.144 28.2111 194.144 30C194.144 31.7889 194.47 33.456 195.113 35.0096C195.796 36.5812 196.709 37.9537 197.848 39.1364C198.983 40.2859 200.301 41.1969 201.808 41.8753C203.291 42.5149 204.873 42.8357 206.568 42.8357C208.476 42.8357 210.304 42.3903 212.068 41.4802L212.076 41.4765C213.778 40.6128 215.208 39.4599 216.372 38.0074V33.5161H206.711C206.086 33.5161 205.454 33.3254 204.992 32.8407L204.967 32.8141L204.943 32.786C204.637 32.4187 204.418 31.9694 204.418 31.4554C204.418 30.9631 204.564 30.3993 205.062 29.9714C205.549 29.5521 206.174 29.4375 206.711 29.4375H218.665C219.202 29.4375 219.827 29.5521 220.315 29.9714C220.812 30.3993 220.958 30.9631 220.958 31.4554V44.8108C220.958 45.3297 220.777 45.827 220.384 46.2389L220.354 46.2703ZM247.283 43.2077C246.833 42.82 246.268 42.6645 245.707 42.6645H229.711V32.0607H242.373C242.929 32.0607 243.525 31.9232 243.996 31.5179C244.51 31.105 244.714 30.5493 244.714 30C244.714 29.4368 244.435 28.9727 244.06 28.6248C243.601 28.1642 242.984 27.9821 242.373 27.9821H229.711V17.3783H245.707C246.267 17.3783 246.833 17.2228 247.283 16.8353C247.797 16.4224 248 15.8668 248 15.3176C248 14.7742 247.782 14.2594 247.317 13.8706C246.885 13.4528 246.312 13.2568 245.707 13.2568H227.466C226.829 13.2568 226.279 13.4923 225.857 13.8717C225.402 14.2805 225.221 14.8016 225.221 15.3176V44.7252C225.221 45.2441 225.402 45.7414 225.795 46.1533L225.855 46.2162L225.925 46.27C226.358 46.604 226.887 46.786 227.466 46.786H245.707C246.281 46.786 246.861 46.6227 247.316 46.2139C247.765 45.81 248 45.2928 248 44.7252C248 44.176 247.797 43.6205 247.283 43.2077Z" fill="#E5F51A"/>
<path d="M61 44.7252V15.3176C61 14.8016 61.1817 14.2805 61.6365 13.8717C62.0586 13.4923 62.6086 13.2568 63.2452 13.2568H81.4864C82.091 13.2568 82.6638 13.4528 83.0963 13.8706C83.5612 14.2594 83.7793 14.7742 83.7793 15.3176C83.7793 15.8668 83.5761 16.4224 83.0623 16.8352C82.6126 17.2228 82.0468 17.3783 81.4864 17.3783H65.4905V27.9821H78.1525C78.7629 27.9821 79.3803 28.1642 79.8395 28.6248C80.2145 28.9727 80.493 29.4369 80.493 30C80.493 30.5493 80.2897 31.1051 79.7756 31.5179C79.3045 31.9232 78.708 32.0608 78.1525 32.0608H65.4905C65.4905 32.0608 65.4907 40.3051 65.4905 44.7252C65.4904 46.583 63.9936 46.786 63.2452 46.786C61.9517 46.786 61 46.1346 61 44.7252Z" fill="#E5F51A"/>
<path fill-rule="evenodd" clip-rule="evenodd" d="M28.3498 30.7805C28.3498 29.5019 29.3862 28.4655 30.6647 28.4655H39.3769C40.6554 28.4655 41.6918 29.5019 41.6918 30.7805C41.6918 32.059 40.6554 33.0954 39.3769 33.0954L30.6647 33.0954C29.3862 33.0954 28.3498 32.059 28.3498 30.7805Z" fill="url(#paint0_linear_332_116)"/>
<path d="M41.9906 30.7805C41.9906 32.2239 40.8204 33.3941 39.3769 33.3941C37.9334 33.3941 36.7632 32.2239 36.7632 30.7805C36.7632 29.337 37.9334 28.1668 39.3769 28.1668C40.8204 28.1668 41.9906 29.337 41.9906 30.7805Z" fill="#E5F51A"/>
<path fill-rule="evenodd" clip-rule="evenodd" d="M25.2881 43.7063C27.0364 41.1323 28.1461 36.9257 28.1462 30.6395C28.1462 25.8579 28.4077 20.548 30.359 16.4027C31.364 14.2677 32.8437 12.3771 34.9977 11.0389C37.1456 9.70438 39.794 9.0246 42.9669 9.0246L42.9666 13.6513C40.4605 13.6513 38.7064 14.1835 37.445 14.9672C36.1897 15.7471 35.2532 16.881 34.552 18.3707C33.0908 21.4748 32.7793 25.8156 32.7793 30.6392C32.7792 37.3283 31.6235 42.3588 29.1227 46.0406C26.5198 49.8728 22.679 51.6897 18.032 51.6897V47.3336C21.3193 47.3336 23.6419 46.1299 25.2881 43.7063Z" fill="url(#paint1_linear_332_116)"/>
<path d="M45.4754 11.6137C45.4754 13.0571 44.3053 14.2273 42.8618 14.2273C41.4183 14.2273 40.2481 13.0571 40.2481 11.6137C40.2481 10.1702 41.4183 9 42.8618 9C44.3053 9 45.4754 10.1702 45.4754 11.6137Z" fill="#E5F51A"/>
<path d="M20.2101 49.5117C20.2101 50.7146 19.235 51.6897 18.032 51.6897C16.8291 51.6897 15.854 50.7146 15.854 49.5117C15.854 48.3088 16.8291 47.3336 18.032 47.3336C19.235 47.3336 20.2101 48.3088 20.2101 49.5117Z" fill="#E5F51A"/>
<defs>
<linearGradient id="paint0_linear_332_116" x1="21.9607" y1="30.3448" x2="41.303" y2="30.3448" gradientUnits="userSpaceOnUse">
<stop stop-opacity="0"/>
<stop offset="1" stop-color="#EDFF00"/>
</linearGradient>
<linearGradient id="paint1_linear_332_116" x1="17.4672" y1="39.0495" x2="45.4018" y2="37.3966" gradientUnits="userSpaceOnUse">
<stop stop-color="#040400" stop-opacity="0"/>
<stop offset="0.239583" stop-color="#E5F51A"/>
<stop offset="0.776042" stop-color="#EDFF00"/>
<stop offset="1" stop-color="#1A1C00" stop-opacity="0"/>
</linearGradient>
</defs>
</svg>
